<?xml version="1.0" standalone="no"?>
<!DOCTYPE svg PUBLIC "-//W3C//DTD SVG 20010904//EN"
 "http://www.w3.org/TR/2001/REC-SVG-20010904/DTD/svg10.dtd">
<svg version="1.0" xmlns="http://www.w3.org/2000/svg"
 width="300.000000pt" height="300.000000pt" viewBox="0 0 300.000000 300.000000"
 preserveAspectRatio="xMidYMid meet">
<metadata>
Created by potrace 1.10, written by Peter Selinger 2001-2011
</metadata>
<g transform="translate(0.000000,300.000000) scale(0.100000,-0.100000)"
fill="#000000" stroke="none">
<path d="M554 2976 c7 -29 90 -178 125 -226 48 -65 94 -110 113 -110 25 0 23
17 -4 31 -32 17 -58 46 -110 125 -48 72 -80 130 -97 177 -13 34 -36 37 -27 3z"/>
<path d="M604 2985 c3 -8 27 -47 53 -86 27 -39 56 -83 65 -98 21 -30 157 -161
169 -161 4 0 34 -33 67 -72 33 -40 80 -95 106 -122 25 -27 46 -53 46 -58 0 -4
7 -8 15 -8 24 0 17 23 -17 55 -17 17 -67 72 -111 122 -43 51 -93 103 -110 115
-72 51 -181 178 -240 281 -26 43 -57 67 -43 32z"/>
<path d="M1140 2995 c0 -11 62 -125 71 -131 23 -14 19 8 -12 70 -18 36 -39 66
-46 66 -7 0 -13 -2 -13 -5z"/>
<path d="M1362 2870 c4 -157 22 -181 26 -35 3 108 -3 165 -19 165 -6 0 -9 -50
-7 -130z"/>
<path d="M1646 2986 c3 -8 -10 -36 -29 -63 -70 -100 -150 -282 -174 -398 -8
-38 -8 -36 -13 34 -3 51 -9 76 -19 79 -11 4 -13 -8 -7 -69 4 -41 13 -80 19
-88 6 -7 12 -21 12 -30 3 -42 6 -51 14 -51 4 0 11 33 14 73 9 123 81 302 174
435 43 62 49 92 19 92 -9 0 -13 -6 -10 -14z"/>
<path d="M1767 2963 c-6 -35 -22 -112 -72 -351 -16 -75 -16 -106 2 -89 3 4 16
60 29 125 12 64 27 140 33 167 35 162 38 185 26 185 -7 0 -15 -17 -18 -37z"/>
<path d="M1976 2973 c-34 -163 -53 -314 -41 -333 9 -15 35 1 35 21 0 11 -5 27
-11 37 -9 15 -6 46 14 143 14 68 29 132 32 142 5 11 2 17 -8 17 -8 0 -17 -12
-21 -27z"/>
<path d="M2414 2983 c-28 -90 -98 -202 -126 -203 -12 0 -30 -34 -62 -117 -25
-64 -44 -118 -41 -121 12 -13 34 25 59 101 22 68 35 90 76 131 28 28 50 56 50
63 0 7 4 13 8 13 8 0 62 122 62 140 0 17 -20 11 -26 -7z"/>
<path d="M2460 2965 c0 -20 7 -49 16 -64 15 -26 21 -28 78 -27 43 1 67 -4 77
-14 27 -28 60 -80 99 -156 31 -60 36 -76 25 -81 -12 -4 -15 -26 -15 -94 l0
-89 -64 -64 c-35 -36 -67 -74 -71 -85 -11 -34 -22 -24 -27 24 -8 71 -28 92
-92 100 -30 4 -59 4 -64 1 -5 -3 -12 -30 -14 -60 -3 -30 -11 -63 -19 -72 -8
-9 -13 -24 -11 -33 1 -9 -20 -42 -47 -73 l-48 -57 -23 31 -22 30 66 67 c36 37
66 72 66 79 0 6 5 12 10 12 6 0 10 7 10 15 0 24 -13 18 -37 -18 -12 -17 -44
-54 -71 -80 l-50 -49 -21 23 -21 23 36 18 c62 30 95 68 59 68 -8 0 -15 -4 -15
-10 0 -13 -75 -60 -95 -60 -25 0 -17 20 13 32 50 22 162 100 156 109 -3 5 -22
-3 -42 -19 -20 -16 -63 -43 -95 -61 l-58 -32 -26 21 c-14 11 -35 20 -47 21
-14 0 -16 2 -6 6 80 29 192 125 171 146 -7 7 -4 18 10 36 30 38 8 36 -34 -3
-41 -38 -123 -96 -137 -96 -5 0 -15 -8 -22 -19 -7 -10 -32 -22 -56 -26 -23 -4
-42 -11 -42 -15 0 -5 -10 -18 -22 -30 -33 -30 -14 -36 25 -6 19 14 40 26 47
26 15 0 102 56 168 109 23 19 46 30 50 26 11 -12 -82 -87 -155 -125 -37 -19
-70 -36 -72 -37 -2 -2 -1 -6 2 -9 4 -4 13 -1 21 5 25 21 124 -35 113 -64 -4
-10 0 -15 12 -15 33 0 130 -141 138 -201 7 -47 19 -42 34 14 6 23 14 36 16 30
6 -17 26 -17 21 -1 -3 7 6 28 19 47 13 18 23 41 23 50 -1 39 46 201 58 201 32
0 82 -30 86 -52 3 -13 8 -36 11 -53 4 -16 13 -70 20 -120 7 -49 21 -120 30
-157 17 -66 17 -70 -3 -135 -24 -77 -64 -216 -81 -283 -29 -110 -35 -126 -48
-140 -13 -13 -14 -5 -8 70 8 98 8 90 6 113 0 10 -6 17 -12 15 -6 -2 -13 -35
-15 -73 -2 -39 -5 -90 -8 -115 -2 -25 -9 -137 -15 -250 -6 -113 -15 -223 -20
-245 -6 -33 -87 -247 -136 -360 -7 -16 -16 -41 -20 -55 -17 -56 -96 -207 -122
-232 -30 -28 -119 -72 -169 -82 -18 -4 -69 -8 -114 -10 -72 -3 -85 -1 -108 19
-42 34 -332 228 -398 265 -32 18 -67 40 -77 48 -23 21 -29 12 -9 -13 18 -23
256 -185 271 -185 5 0 14 -7 22 -16 7 -8 44 -36 83 -61 39 -25 81 -54 93 -65
19 -18 35 -21 115 -20 132 1 279 49 330 107 25 29 99 191 90 199 -3 3 0 16 6
29 26 55 60 134 67 157 4 14 11 30 15 35 4 6 13 28 20 50 7 22 18 51 25 65 51
102 75 206 75 327 0 33 5 64 12 71 6 6 24 39 39 74 15 34 32 64 37 66 6 2 13
-11 17 -27 5 -23 0 -41 -19 -73 -30 -50 -31 -49 -11 15 8 26 10 45 5 42 -6 -4
-10 -12 -10 -18 0 -7 -8 -28 -18 -47 -22 -42 -35 -100 -22 -100 5 0 26 29 47
63 35 58 63 77 63 42 0 -8 7 -35 16 -61 l16 -46 -47 -144 c-25 -79 -50 -146
-55 -149 -5 -3 -7 -12 -4 -19 3 -8 -1 -27 -9 -43 -8 -15 -12 -34 -9 -42 2 -8
-3 -18 -12 -23 -9 -5 -16 -15 -16 -21 0 -7 -9 -19 -20 -27 -20 -14 -27 -31
-12 -29 25 4 22 -4 -11 -26 -20 -14 -37 -30 -37 -35 0 -15 16 -12 30 5 23 27
30 16 11 -17 -10 -18 -33 -78 -51 -133 -19 -55 -38 -101 -42 -103 -4 -2 -5
-15 -2 -28 3 -13 2 -24 -3 -24 -5 0 -17 -16 -26 -35 -9 -19 -21 -35 -27 -35
-15 0 -13 7 16 55 14 25 23 49 20 54 -4 5 0 27 7 48 11 32 11 41 0 51 -7 7
-13 9 -14 5 0 -4 -5 3 -10 16 -7 17 -5 30 6 47 18 28 19 38 4 28 -8 -4 -9 1
-4 16 12 36 -17 19 -33 -20 -13 -32 -13 -33 4 -19 16 13 16 12 6 -8 -7 -12 -9
-29 -6 -37 3 -9 -1 -27 -10 -41 -9 -14 -13 -25 -8 -25 5 0 15 -15 24 -33 14
-29 14 -38 2 -65 -7 -18 -21 -40 -30 -49 -13 -14 -14 -18 -3 -22 27 -9 40 -29
30 -48 -21 -38 -50 -109 -57 -136 -3 -15 -10 -30 -15 -33 -17 -10 -9 -24 14
-24 18 0 27 8 35 33 62 176 88 247 114 307 41 94 111 306 112 341 1 9 6 22 13
30 17 21 55 111 49 117 -3 2 1 17 10 33 8 16 12 29 8 29 -4 0 -2 6 4 13 6 7
18 35 27 62 9 28 19 57 22 65 4 8 7 17 8 20 0 3 7 23 15 45 7 22 14 50 16 63
3 27 -23 106 -59 177 -73 145 -76 158 -52 225 8 24 17 53 19 66 3 13 23 88 46
168 l41 146 -25 113 c-35 156 -34 178 12 238 20 26 43 48 50 49 6 0 12 4 12
10 0 16 35 29 51 19 9 -6 10 -12 4 -16 -6 -5 -12 -21 -13 -36 l-4 -29 21 21
c12 12 21 28 21 36 0 7 6 18 14 22 16 9 28 63 14 63 -6 0 -18 -10 -27 -22
l-18 -21 -5 27 c-5 26 12 56 32 56 4 0 15 19 24 41 18 45 82 129 98 129 6 0 8
-9 5 -21 -3 -12 0 -22 7 -25 9 -3 14 -25 15 -60 1 -46 -4 -63 -27 -97 -37 -55
-64 -115 -59 -130 2 -7 17 10 33 36 16 27 46 69 67 93 39 48 43 59 26 69 -6 4
-8 13 -5 21 3 7 1 16 -3 18 -5 3 -8 16 -8 29 0 31 -29 74 -55 83 -15 4 -30 -4
-59 -32 -21 -21 -39 -43 -39 -49 0 -6 -9 -18 -20 -28 -19 -16 -20 -16 -20 11
0 42 28 112 61 154 17 21 29 44 26 50 -2 7 2 28 9 47 12 29 12 37 1 50 -20 22
-47 109 -40 126 8 23 -25 18 -37 -4 -15 -28 -12 -51 5 -51 18 0 19 -12 3 -28
-9 -9 -8 -12 4 -12 12 0 15 -6 10 -22 -4 -18 -2 -20 16 -16 28 8 29 -13 2 -37
-15 -13 -17 -21 -9 -31 12 -14 1 -42 -25 -64 -9 -7 -16 -21 -16 -32 0 -30 -14
-14 -49 56 -25 51 -31 77 -33 132 0 38 3 81 7 97 6 23 4 27 -14 27 -12 0 -20
-4 -17 -8 6 -10 -12 -83 -24 -95 -11 -13 -41 23 -39 47 3 42 -1 56 -17 56 -10
0 -14 -6 -11 -15 4 -8 2 -17 -4 -21 -5 -3 -9 -13 -8 -22 3 -36 -1 -41 -36 -40
-40 1 -47 8 -54 57 -8 48 -31 53 -31 6z m-129 -850 c-18 -38 -26 -43 -35 -19
-6 16 32 66 45 58 4 -2 -1 -19 -10 -39z m201 -686 c6 -4 -2 -34 -20 -75 -16
-38 -32 -77 -35 -86 -4 -10 -12 -18 -18 -18 -15 0 -4 57 15 79 14 17 38 82 32
88 -2 2 -11 -14 -20 -37 -9 -22 -20 -40 -26 -40 -5 0 -10 2 -10 5 0 7 24 60
30 65 3 3 12 19 19 35 13 26 15 27 19 10 2 -11 9 -23 14 -26z m-202 -1000 c0
-3 -9 -14 -19 -23 -19 -17 -19 -17 -14 6 4 18 3 20 -6 8 -6 -8 -11 -10 -11 -4
0 6 3 13 6 17 8 7 44 5 44 -4z"/>
<path d="M225 2961 c3 -5 20 -13 38 -16 17 -4 50 -18 73 -31 45 -26 101 -80
71 -68 -23 8 -22 -9 2 -30 20 -18 41 -14 41 7 0 21 -83 105 -125 127 -40 20
-111 28 -100 11z"/>
<path d="M2024 2878 c-4 -13 -10 -25 -15 -28 -14 -9 -41 -130 -33 -148 5 -12
9 -5 15 26 7 35 29 89 67 165 2 4 -3 7 -11 7 -9 0 -19 -10 -23 -22z"/>
<path d="M1794 2855 c-6 -11 -14 -40 -18 -65 -3 -25 -14 -78 -23 -117 -9 -40
-13 -76 -9 -80 11 -11 26 18 26 50 0 15 9 63 21 107 11 44 19 90 17 103 -3 21
-4 22 -14 2z"/>
<path d="M2394 2808 c-75 -69 -143 -182 -129 -215 6 -15 8 -15 12 -3 21 64 66
132 125 192 74 74 68 96 -8 26z"/>
<path d="M2573 2813 c-70 -64 -226 -278 -239 -326 -11 -43 -55 -80 -152 -129
-29 -14 -49 -29 -43 -33 31 -18 254 146 236 175 -11 18 129 213 209 290 54 53
45 74 -11 23z"/>
<path d="M470 2740 c0 -73 167 -250 305 -323 61 -33 140 -67 154 -67 5 0 17
-7 26 -16 15 -15 18 -15 32 -2 13 14 10 17 -34 33 -26 10 -72 29 -101 42 -29
12 -55 23 -57 23 -7 0 -101 66 -149 104 -41 33 -127 138 -141 171 -4 11 -7 28
-6 38 1 10 -4 17 -13 17 -9 0 -16 -9 -16 -20z"/>
<path d="M60 2586 c0 -19 55 -65 88 -72 15 -4 32 -11 38 -16 7 -5 16 -8 20 -7
38 7 78 -4 98 -26 23 -25 76 -68 112 -92 11 -7 36 -24 57 -38 21 -13 51 -32
68 -40 17 -9 27 -20 23 -27 -5 -8 -1 -9 12 -4 10 4 15 4 11 0 -9 -9 47 -34 74
-34 35 0 19 18 -37 44 -77 36 -244 149 -287 195 -30 32 -43 39 -90 44 -69 9
-142 39 -157 66 -12 24 -30 28 -30 7z"/>
<path d="M2678 2560 c-21 -22 -56 -52 -78 -66 -27 -18 -37 -31 -31 -37 18 -18
151 98 151 131 0 17 -1 17 -42 -28z"/>
<path d="M2507 2560 c-56 -18 -97 -44 -97 -62 0 -4 7 -8 15 -8 8 0 15 4 15 9
0 17 85 45 154 50 42 4 71 11 74 19 6 19 -92 14 -161 -8z"/>
<path d="M1970 2449 c-14 -22 -42 -59 -62 -82 -21 -23 -38 -45 -38 -49 0 -14
20 -8 26 7 3 8 14 17 25 20 10 4 19 11 19 16 0 6 16 31 35 56 33 43 44 73 28
73 -5 0 -19 -19 -33 -41z"/>
<path d="M1816 2423 c-24 -57 -98 -146 -136 -164 -46 -22 -130 -97 -130 -115
0 -10 14 -2 38 21 20 19 60 49 87 65 46 26 138 110 122 110 -4 0 7 22 23 49
31 49 37 71 21 71 -5 0 -16 -17 -25 -37z"/>
<path d="M154 2419 c-27 -29 -28 -31 -11 -44 10 -7 42 -19 70 -25 89 -21 291
-90 319 -111 30 -21 48 -24 48 -8 0 11 -140 79 -164 79 -8 0 -17 4 -20 9 -4 5
-25 12 -49 16 -23 4 -53 13 -67 20 -14 7 -44 16 -67 20 -51 8 -61 20 -33 37
20 13 28 38 12 38 -5 0 -21 -14 -38 -31z"/>
<path d="M1841 2399 c-13 -17 -25 -41 -26 -54 -2 -13 -20 -39 -42 -59 -23 -21
-32 -36 -23 -36 22 0 123 107 117 124 -3 8 1 20 9 26 8 7 14 16 14 21 0 19
-26 7 -49 -22z"/>
<path d="M2937 2355 c-38 -49 -65 -75 -78 -75 -11 0 -22 -7 -25 -15 -11 -28
-27 -16 -20 15 6 34 0 36 -29 14 -20 -15 -20 -15 4 -35 13 -10 29 -19 36 -19
19 0 79 32 92 49 11 14 13 14 14 1 2 -22 2 -23 -5 -53 -7 -28 -7 -28 19 -11
19 13 25 25 25 54 0 22 7 45 16 54 10 10 14 29 12 56 l-3 40 -58 -75z"/>
<path d="M1183 2314 c6 -62 52 -199 75 -227 61 -71 -150 51 -219 127 -46 50
-36 6 13 -56 46 -59 125 -138 138 -138 26 0 14 21 -29 50 -26 18 -54 42 -61
54 -13 20 -12 20 11 3 48 -34 146 -87 162 -87 50 0 59 25 26 72 -12 17 -34 61
-49 99 -15 38 -30 66 -33 62 -7 -7 -10 23 -7 70 1 20 -3 27 -16 27 -14 0 -16
-8 -11 -56z m109 -231 c7 -9 7 -13 -1 -13 -11 0 -41 63 -41 84 1 6 7 -4 16
-23 8 -19 19 -41 26 -48z"/>
<path d="M2467 2217 c-16 -67 -33 -132 -38 -145 -12 -29 -12 -62 0 -62 17 0
30 -61 37 -166 8 -115 24 -152 24 -54 0 38 4 59 10 55 6 -3 10 -28 10 -56 0
-27 5 -49 10 -49 6 0 10 24 10 53 0 41 -5 58 -20 72 -11 10 -20 29 -20 42 0
20 4 22 25 17 20 -5 24 -3 19 9 -3 8 -16 18 -30 21 -21 6 -30 23 -25 50 7 37
24 175 24 191 -1 11 -4 31 -8 45 l-8 25 22 -20 c20 -17 22 -25 16 -77 -13
-113 -1 -188 31 -188 18 0 18 4 -2 42 -13 25 -15 51 -12 120 5 76 3 92 -13
112 -11 13 -19 38 -19 55 0 61 -16 29 -43 -92z m18 -66 c-4 -27 -13 -69 -21
-93 l-14 -43 6 65 c3 36 10 69 15 75 5 5 9 17 9 27 0 10 3 18 6 18 3 0 3 -22
-1 -49z"/>
<path d="M1552 2297 c-5 -6 -17 -30 -26 -52 -9 -21 -42 -63 -72 -91 -30 -29
-54 -50 -52 -46 31 57 57 126 52 134 -8 13 -34 -18 -34 -41 0 -9 -16 -47 -35
-84 -34 -66 -43 -97 -27 -97 4 0 18 16 31 36 13 19 48 57 77 83 53 49 121 156
105 166 -5 2 -13 -1 -19 -8z"/>
<path d="M2021 2297 c-1 -11 -10 -30 -21 -44 -30 -39 -14 -42 21 -5 30 31 53
45 30 18 -8 -10 -9 -16 -1 -21 16 -10 12 -19 -21 -53 -18 -18 -29 -36 -25 -39
4 -4 12 -1 17 7 8 12 10 10 6 -7 -3 -13 0 -23 5 -23 6 0 5 -6 -2 -15 -8 -9 -8
-15 -2 -15 6 0 9 -16 8 -35 -2 -24 1 -35 10 -35 19 0 17 -10 -3 -27 -17 -13
-17 -14 2 -11 16 3 19 10 17 33 -2 31 -3 51 -2 95 l1 25 10 -23 c5 -13 7 -27
4 -32 -3 -4 -1 -28 4 -53 8 -42 6 -45 -21 -61 -15 -10 -28 -21 -28 -27 0 -13
14 -11 28 3 6 6 14 9 17 6 4 -3 -4 -15 -16 -27 -33 -30 -18 -36 25 -9 30 19
35 27 30 48 -3 14 -8 38 -10 54 -2 15 -6 36 -9 46 -3 10 -1 21 5 25 16 10 12
25 -5 19 -18 -7 -20 12 -2 19 9 4 8 8 -3 16 -13 10 -13 12 0 21 13 8 12 10 -2
10 -15 0 -18 10 -18 65 0 62 -1 65 -19 55 -14 -7 -21 -6 -24 3 -3 7 -6 4 -6
-6z"/>
<path d="M1560 2211 c-67 -66 -87 -101 -55 -101 8 0 15 5 15 12 0 22 51 86 91
114 37 26 50 44 29 44 -5 0 -41 -31 -80 -69z"/>
<path d="M2311 2219 c-29 -22 -50 -43 -47 -46 6 -6 33 11 81 50 52 43 20 40
-34 -4z"/>
<path d="M2007 2217 c-16 -16 -26 -32 -22 -35 8 -8 58 44 54 55 -2 5 -17 -4
-32 -20z"/>
<path d="M2978 2216 c-29 -28 -21 -47 10 -27 8 5 12 17 10 26 -3 18 -4 18 -20
1z"/>
<path d="M931 2108 c-11 -29 -5 -43 22 -56 20 -10 18 -11 -17 -11 -26 -1 -43
5 -52 17 -12 16 -13 16 -20 -1 -14 -36 9 -42 118 -30 56 7 107 8 113 4 5 -5
26 -12 45 -15 33 -7 34 -6 16 9 -11 8 -27 15 -35 15 -12 0 -13 2 -3 8 8 6 -9
19 -53 41 -36 19 -69 31 -72 27 -10 -10 7 -23 62 -46 l50 -21 -62 5 c-35 3
-71 11 -82 18 -17 11 -18 14 -4 35 14 21 14 23 -1 23 -9 0 -20 -10 -25 -22z"/>
<path d="M2383 2108 c-6 -7 -14 -46 -18 -85 -4 -40 -12 -73 -17 -73 -7 0 -9
20 -5 55 3 30 2 55 -3 55 -16 0 -23 -70 -11 -113 7 -23 13 -49 14 -57 2 -8 6
-21 11 -28 6 -10 11 -9 21 4 7 10 11 23 8 30 -2 6 1 57 7 114 5 57 8 105 6
107 -2 2 -8 -2 -13 -9z"/>
<path d="M0 2099 c0 -28 88 -79 139 -80 20 0 54 -4 76 -8 l40 -7 -35 -7 c-47
-10 -100 -43 -100 -64 0 -29 82 -97 139 -116 69 -22 161 -23 161 -2 0 12 -14
15 -70 15 -52 0 -82 6 -113 21 -40 20 -97 66 -97 79 0 3 15 14 32 25 45 26
167 28 196 2 16 -14 21 -15 25 -4 8 22 -5 33 -58 46 -27 7 -57 15 -65 18 -27
11 -34 12 -105 24 -77 13 -105 23 -134 51 -23 21 -31 23 -31 7z"/>
<path d="M2910 2102 c0 -5 10 -17 23 -25 21 -14 25 -13 48 4 18 14 20 19 8 19
-9 0 -31 3 -48 6 -18 4 -31 2 -31 -4z"/>
<path d="M2866 2069 c-10 -16 -15 -36 -12 -44 3 -8 -4 -40 -15 -72 -37 -106
-34 -190 4 -113 10 19 11 30 4 33 -6 2 -3 15 9 32 11 16 21 57 25 94 4 36 10
74 14 84 12 29 -10 19 -29 -14z"/>
<path d="M2976 2036 c-9 -19 -16 -37 -16 -42 0 -4 -8 -16 -17 -26 -16 -18 -16
-19 5 -25 22 -5 31 -23 11 -23 -5 0 -8 -4 -4 -9 3 -5 0 -21 -7 -36 -8 -18 -8
-29 -1 -36 20 -20 49 68 51 154 1 42 1 77 -2 77 -2 0 -11 -15 -20 -34z"/>
<path d="M707 2028 c-3 -18 -11 -69 -17 -113 -29 -201 -50 -319 -59 -328 -14
-14 -53 52 -46 79 3 14 -4 31 -21 49 -17 18 -22 30 -15 35 8 4 1 20 -19 45
-16 21 -30 39 -30 40 0 0 31 1 70 1 38 -1 69 3 67 8 -1 5 -25 8 -54 7 -28 -1
-59 2 -70 8 -54 30 -82 40 -88 31 -3 -6 5 -14 20 -20 14 -5 30 -20 35 -32 5
-13 18 -34 27 -48 10 -13 13 -21 6 -17 -28 17 -19 -13 12 -43 33 -32 48 -59
24 -44 -13 8 4 -27 33 -69 11 -15 18 -33 15 -40 -4 -13 -70 83 -81 121 -10 32
-40 30 -32 -3 5 -18 2 -25 -9 -25 -8 0 -29 -12 -46 -28 l-31 -28 37 -59 c20
-33 41 -68 48 -77 19 -28 1 -32 -46 -9 -59 29 -95 26 -171 -10 l-65 -31 -29
23 c-44 36 -86 102 -107 168 -6 20 -4 22 15 16 15 -5 20 -4 16 4 -4 6 1 22 11
37 24 37 23 185 -2 238 -15 31 -74 76 -100 76 -16 0 -2 -43 15 -47 11 -3 20
-9 20 -14 0 -5 6 -9 14 -9 34 0 34 -213 1 -250 -22 -25 -26 -74 -9 -115 20
-48 72 -114 107 -135 42 -26 73 -25 135 5 59 29 86 31 133 11 21 -9 42 -11 60
-6 21 6 32 4 46 -12 16 -18 26 -78 13 -78 -8 0 -30 -63 -35 -99 -2 -17 -11
-41 -19 -53 -9 -12 -16 -30 -16 -40 0 -10 -4 -18 -9 -18 -5 0 -13 -9 -16 -20
-4 -11 -25 -30 -47 -41 -42 -21 -112 -89 -207 -198 -82 -96 -132 -150 -163
-179 -20 -18 -28 -35 -28 -59 l0 -35 51 56 c28 31 56 56 61 56 6 0 24 12 41
26 39 33 138 82 184 92 20 4 38 13 41 20 6 18 -19 15 -73 -9 -25 -11 -49 -19
-51 -17 -8 9 85 48 115 48 21 0 31 5 31 15 0 19 -40 20 -66 0 -10 -8 -26 -15
-33 -15 -21 0 -92 -51 -86 -60 6 -10 -93 -85 -101 -77 -3 3 11 18 30 34 20 15
36 32 36 37 0 5 32 41 71 82 61 61 93 84 131 88 3 1 10 4 14 8 4 5 22 8 40 8
18 0 35 4 39 9 11 19 -13 20 -59 5 -61 -21 -80 -13 -36 15 32 20 43 21 145 15
61 -3 113 -8 118 -11 4 -2 58 -9 120 -14 125 -10 213 -22 272 -38 22 -5 56
-13 75 -16 24 -4 55 -24 100 -66 36 -33 108 -93 160 -132 123 -92 125 -95 94
-128 -31 -32 -30 -50 2 -89 34 -40 75 -60 105 -53 23 5 24 5 4 -10 -11 -8 -24
-12 -30 -8 -5 5 -23 11 -40 15 -66 16 -325 144 -325 160 0 23 -41 66 -83 88
-23 11 -73 41 -112 66 -106 69 -305 182 -321 182 -25 0 -15 -29 13 -36 23 -6
106 -49 163 -84 8 -6 31 -19 50 -30 19 -12 67 -41 105 -65 39 -25 87 -54 108
-65 20 -11 37 -24 37 -28 0 -11 -60 -72 -72 -72 -5 0 7 14 27 31 20 18 34 34
31 36 -4 4 -55 -29 -90 -58 -5 -4 -1 -15 7 -24 20 -20 43 -10 81 35 l26 31 20
-33 c11 -18 20 -40 20 -48 0 -9 6 -24 14 -35 7 -11 21 -37 30 -58 l15 -38 -44
-31 c-25 -18 -45 -40 -45 -50 0 -26 6 -23 49 22 38 40 61 51 61 29 0 -7 -8
-18 -17 -25 -10 -7 -15 -16 -11 -20 4 -4 14 -1 23 6 30 25 16 -25 -15 -55 -38
-36 -38 -59 0 -119 l30 -47 -37 3 c-36 3 -40 7 -73 69 -36 67 -128 201 -175
254 -68 77 -86 95 -95 95 -6 0 -10 7 -10 15 0 8 -10 20 -22 26 -12 6 -31 20
-42 30 -11 11 -23 19 -28 19 -4 0 -8 6 -8 13 -1 6 -30 43 -66 81 -46 49 -68
66 -76 58 -15 -15 27 -66 134 -166 l89 -82 -31 -42 c-20 -28 -25 -42 -16 -42
13 0 44 38 56 68 6 13 60 -44 140 -147 l34 -44 -31 -26 c-33 -27 -46 -61 -26
-68 6 -2 14 6 18 17 9 29 43 62 55 55 6 -4 17 -20 26 -36 14 -29 14 -32 -7
-50 -12 -10 -26 -19 -31 -19 -17 0 -7 -29 27 -71 71 -90 -8 -46 -139 77 -45
42 -97 83 -116 92 -35 15 -44 18 -107 42 -18 7 -33 16 -33 21 0 4 -9 10 -19
14 -30 9 -121 104 -115 119 6 14 -43 29 -51 16 -5 -8 28 -53 78 -105 31 -34
31 -34 12 -59 -16 -21 -31 -19 -115 13 -65 25 -92 27 -84 7 3 -8 29 -20 57
-27 64 -15 117 -37 117 -47 0 -14 -24 -32 -42 -32 -10 0 -18 -4 -18 -10 0 -10
-37 -69 -69 -112 -12 -14 -21 -30 -21 -35 0 -17 -55 -62 -85 -69 -16 -4 -39
-12 -50 -18 -11 -6 -45 -18 -75 -28 l-55 -16 50 -1 c28 0 61 6 75 14 33 19 54
19 46 0 -4 -10 1 -15 14 -15 11 0 20 3 20 8 0 4 25 34 55 67 30 32 55 65 55
72 0 7 4 13 8 13 5 0 18 18 31 40 12 22 38 53 57 68 19 15 34 33 34 40 0 18
17 15 25 -5 6 -17 7 -17 20 1 21 28 66 49 79 36 5 -5 23 -10 38 -10 36 0 37
-17 1 -18 -16 0 -50 -12 -78 -26 -68 -33 -39 -44 43 -17 34 12 69 21 78 21 19
0 81 -47 142 -108 68 -67 119 -95 175 -95 26 0 53 5 59 11 7 7 29 12 49 12 21
0 41 5 44 10 4 6 10 8 15 5 5 -3 24 4 43 15 19 11 41 18 50 14 8 -3 43 -39 78
-80 50 -60 67 -74 90 -74 l29 0 -37 38 c-106 109 -135 145 -123 152 16 10 -14
22 -35 14 -21 -8 -19 6 3 22 15 12 14 14 -19 28 -20 8 -41 27 -47 42 -16 34
-5 46 15 16 9 -12 24 -22 35 -22 30 0 58 -19 52 -34 -3 -8 3 -17 14 -20 11 -4
28 -16 38 -27 17 -19 17 -20 -2 -13 -10 3 -3 -4 16 -16 20 -13 30 -25 23 -27
-7 -3 -27 6 -45 19 l-33 23 25 -31 c15 -19 34 -31 47 -30 11 1 19 4 16 9 -2 4
1 7 6 7 6 0 11 -7 11 -15 0 -8 11 -22 25 -31 28 -18 59 -64 33 -48 -7 4 -30
21 -50 38 -21 16 -40 27 -43 24 -13 -13 135 -118 167 -118 13 0 -68 101 -147
184 -62 65 -77 85 -55 71 6 -3 10 -3 9 2 0 4 -28 22 -62 38 -71 35 -117 71
-117 91 0 9 18 0 50 -25 28 -22 59 -43 70 -46 11 -4 20 -11 20 -16 0 -5 7 -9
15 -9 29 0 14 15 -66 70 -90 61 -112 84 -149 153 -35 67 -10 83 60 37 26 -17
150 -70 164 -70 7 0 16 -3 20 -7 4 -4 26 -13 49 -20 39 -12 43 -11 59 8 16 19
18 19 43 3 18 -12 50 -17 122 -18 l98 -1 95 51 c94 49 96 51 157 145 35 51 72
114 84 138 11 24 27 50 35 58 20 21 17 38 -8 50 -40 20 -68 22 -68 7 0 -8 -28
-27 -62 -44 -104 -48 -375 -160 -390 -160 -8 0 -19 -5 -26 -12 -7 -7 -12 -8
-12 -4 0 5 -6 4 -12 -2 -7 -5 -37 -13 -66 -17 -52 -7 -54 -6 -90 32 -20 21
-59 54 -87 73 -69 47 -78 55 -169 142 -77 73 -82 77 -145 87 -168 27 -200 37
-223 67 -26 32 -29 45 -10 52 6 2 12 -5 13 -15 0 -16 1 -16 9 2 8 18 9 18 9 2
1 -21 41 -77 41 -57 0 11 -34 91 -60 141 -13 26 46 32 90 10 62 -32 160 -45
224 -30 36 8 56 17 56 26 0 8 10 23 23 33 36 30 12 34 -36 6 -24 -14 -53 -26
-65 -26 -11 0 -24 -4 -27 -10 -9 -15 -46 -12 -79 5 -34 18 -70 21 -46 4 12 -9
12 -10 -3 -5 -10 3 -23 6 -28 6 -5 0 -9 5 -9 11 0 5 5 7 11 4 5 -4 18 0 27 7
30 26 96 45 135 40 29 -3 37 -1 37 12 0 17 37 36 68 36 9 0 30 -11 46 -25 44
-38 109 -49 73 -14 -7 8 -16 22 -20 32 -11 30 -71 105 -93 117 -18 10 -36 6
-114 -26 -51 -20 -114 -48 -139 -62 -25 -14 -58 -31 -73 -39 -27 -14 -38 -33
-19 -33 5 0 35 15 68 33 70 39 176 87 193 87 6 0 24 7 39 16 27 16 28 15 60
-16 40 -41 67 -80 54 -80 -6 0 -20 14 -33 30 -22 29 -53 39 -64 21 -3 -5 -18
-12 -33 -15 -16 -4 -73 -27 -128 -50 -124 -54 -179 -71 -200 -62 -15 5 -16 18
-11 104 4 53 7 114 8 135 2 32 5 37 28 38 55 3 108 -3 171 -22 87 -25 101 -25
97 4 -3 20 -10 23 -83 29 -44 4 -96 12 -115 17 -19 6 -48 12 -64 13 l-29 3 2
216 2 217 -33 25 c-41 31 -92 57 -111 57 -9 0 -17 -13 -20 -32z m53 -3 c7 -8
17 -15 23 -15 6 0 21 -10 34 -22 23 -21 23 -22 23 -295 0 -151 -4 -282 -9
-291 -9 -17 -45 -244 -43 -274 0 -9 -6 -19 -13 -22 -23 -8 -29 76 -17 213 6
68 16 129 21 134 15 15 14 27 -1 27 -7 0 -23 -23 -35 -50 -20 -43 -23 -65 -23
-177 1 -84 6 -142 15 -168 8 -21 12 -41 9 -44 -4 -5 -190 15 -246 25 -16 3
-28 9 -28 13 0 4 21 38 46 75 30 45 42 72 36 78 -10 10 1 59 18 83 13 18 60
165 60 188 0 12 10 38 21 57 14 22 25 63 30 110 14 125 19 149 33 144 22 -8
35 19 42 89 5 53 3 71 -10 91 -26 41 -15 66 14 31z m-25 -103 c-10 -80 -24
-109 -24 -52 -1 64 10 121 21 114 6 -4 7 -29 3 -62z m-177 -372 c25 -51 36
-85 34 -107 -4 -36 -19 -44 -29 -15 -7 19 -86 136 -112 165 -15 18 -14 21 14
43 36 29 37 28 93 -86z m300 -375 c22 -47 14 -63 -13 -30 -13 17 -24 36 -25
43 0 22 26 13 38 -13z m1272 -384 c12 -38 12 -40 -33 -107 -64 -98 -95 -127
-173 -165 -66 -32 -74 -34 -181 -34 -61 0 -114 3 -118 7 -3 3 0 15 7 27 11 18
23 21 83 21 114 0 221 48 309 136 36 37 46 54 46 81 0 29 23 70 41 72 3 1 12
-16 19 -38z m-81 -41 c-16 -44 -74 -95 -164 -142 -77 -40 -84 -42 -171 -43
-66 0 -90 3 -87 12 3 6 -8 18 -24 27 -26 14 -26 15 -6 16 12 0 35 5 50 11 50
20 67 27 138 52 39 14 106 41 150 60 44 19 90 36 102 36 20 1 21 -2 12 -29z
m-489 -155 l55 -56 -25 -19 c-32 -25 -37 -25 -76 5 -48 36 -60 62 -40 84 9 10
16 23 16 29 0 22 15 12 70 -43z m-260 -287 c0 -7 11 -36 24 -65 l24 -52 -23
-15 c-14 -9 -27 -16 -30 -16 -3 0 -17 25 -31 55 -23 54 -24 57 -7 80 19 26 43
33 43 13z m-153 -110 c13 -34 13 -39 -2 -54 -15 -15 -17 -15 -30 2 -33 44 -39
63 -25 79 20 24 41 14 57 -27z"/>
<path d="M545 2000 c6 -10 70 -40 86 -40 20 0 -5 27 -35 38 -40 15 -59 15 -51
2z"/>
<path d="M503 1945 c6 -16 177 -19 177 -3 0 10 -23 13 -90 13 -56 0 -89 -4
-87 -10z"/>
<path d="M420 1937 c0 -30 138 -66 199 -52 44 9 40 29 -5 22 -46 -8 -147 11
-157 29 -10 18 -37 18 -37 1z"/>
<path d="M2190 1935 c-14 -8 -32 -14 -41 -15 -9 0 -44 -14 -78 -31 -58 -29
-82 -52 -68 -65 7 -7 67 27 67 37 0 4 38 19 85 34 53 17 85 33 85 41 0 18 -18
17 -50 -1z"/>
<path d="M2930 1768 c-91 -99 -101 -107 -117 -101 -12 5 -14 3 -8 -6 5 -9 18
-11 38 -7 36 7 157 128 157 157 0 29 -10 22 -70 -43z"/>
<path d="M1920 1780 c-30 -23 -61 -45 -69 -49 -8 -5 -11 -16 -7 -26 5 -15 11
-13 44 16 20 19 50 43 66 55 16 11 27 26 25 33 -3 7 -25 -4 -59 -29z"/>
<path d="M2844 1802 c-11 -7 -40 -66 -46 -92 -6 -28 17 -24 32 6 8 16 23 35
33 42 33 25 15 68 -19 44z"/>
<path d="M305 1756 c-38 -13 -81 -30 -95 -37 -47 -27 -70 -44 -70 -51 0 -14
21 -9 50 12 48 34 163 70 225 70 41 0 56 3 53 13 -7 21 -89 17 -163 -7z"/>
<path d="M1759 1675 c-19 -14 -51 -33 -71 -43 l-38 -17 -1 -80 c-3 -168 10
-259 31 -225 5 8 4 22 -2 33 -6 12 -6 23 0 29 6 6 11 -2 15 -21 4 -17 12 -31
18 -31 7 0 9 9 4 28 -4 15 -10 54 -13 87 -7 57 -8 58 -19 32 -7 -15 -17 -27
-23 -27 -7 0 -6 8 2 23 7 12 13 27 13 34 0 6 33 46 73 89 68 71 83 102 56 111
-6 2 -26 -8 -45 -22z"/>
<path d="M1945 1655 c-98 -16 -141 -31 -150 -53 -11 -25 -15 -202 -5 -202 14
0 48 48 60 84 8 26 19 35 49 45 21 6 52 11 68 11 16 0 38 7 49 15 10 8 33 15
49 15 17 0 45 4 63 9 45 13 38 -5 -19 -47 -24 -18 -49 -36 -55 -41 -20 -17
-104 -41 -139 -41 -19 0 -35 -4 -35 -10 0 -5 14 -10 30 -10 17 0 30 -5 30 -11
0 -20 62 -1 117 36 51 34 120 110 116 126 -2 5 13 15 32 23 20 9 35 22 35 32
0 12 -3 14 -13 6 -15 -13 -121 -38 -240 -58 -49 -8 -106 -20 -128 -27 -35 -11
-39 -15 -39 -44 0 -17 -5 -35 -10 -38 -19 -12 -1 117 18 131 21 15 76 23 220
33 63 4 117 12 124 19 16 16 -120 14 -227 -3z"/>
<path d="M114 1629 c-3 -5 6 -9 21 -9 37 0 154 -34 204 -60 43 -21 59 -21 46
0 -10 16 -106 57 -152 65 -72 12 -113 13 -119 4z"/>
<path d="M1190 1487 c0 -19 21 -37 45 -37 11 0 51 -8 88 -17 66 -17 68 -19 65
-45 -3 -20 3 -36 24 -58 15 -17 28 -37 28 -43 0 -7 6 -21 14 -32 7 -11 17 -31
21 -45 29 -95 47 -131 65 -125 14 5 18 -2 24 -42 7 -52 21 -82 32 -70 14 14
-33 162 -98 305 -11 24 -17 46 -14 49 3 3 -6 17 -20 31 -13 15 -24 31 -24 35
0 5 -13 26 -30 47 -16 21 -30 43 -30 49 0 7 -32 11 -95 11 -71 0 -95 -3 -95
-13z m285 -203 c25 -51 47 -108 50 -126 4 -31 4 -30 -6 5 -6 20 -15 37 -20 37
-5 0 -9 7 -9 15 0 14 -49 111 -76 150 -19 26 -18 41 1 25 8 -7 35 -55 60 -106z"/>
<path d="M1792 1367 c-23 -24 -30 -43 -12 -32 5 3 21 -2 35 -11 31 -20 66 -9
86 27 10 19 9 21 -6 16 -9 -4 -26 0 -38 8 -29 20 -40 19 -65 -8z m57 -13 c5 4
13 1 17 -5 4 -7 3 -9 -4 -5 -5 3 -13 0 -16 -6 -5 -10 -7 -10 -12 -1 -3 7 -12
9 -20 6 -10 -4 -12 0 -8 11 5 13 10 14 20 5 7 -6 18 -8 23 -5z"/>
<path d="M2494 954 c-40 -53 -84 -119 -84 -127 0 -15 28 6 39 30 6 14 28 45
47 69 20 24 34 49 32 55 -2 7 -17 -6 -34 -27z"/>
<path d="M1600 937 c0 -8 19 -21 42 -30 70 -28 66 -2 -4 28 -31 12 -38 13 -38
2z"/>
<path d="M2053 943 c-13 -2 -23 -9 -23 -14 0 -5 -9 -9 -20 -9 -11 0 -20 -4
-20 -10 0 -5 -13 -10 -30 -10 -20 0 -30 -5 -30 -15 0 -10 11 -15 35 -15 27 0
33 3 28 16 -4 10 -1 15 8 13 8 -1 27 3 42 9 16 7 33 12 38 12 5 0 9 7 9 15 0
8 -3 14 -7 14 -5 -1 -18 -4 -30 -6z"/>
<path d="M1077 903 c-27 -54 -5 -66 27 -14 31 48 31 51 9 51 -10 0 -26 -16
-36 -37z"/>
<path d="M2466 859 c-58 -73 -67 -93 -41 -83 8 4 15 11 15 18 0 6 20 36 45 66
41 50 53 70 41 70 -3 0 -30 -32 -60 -71z"/>
<path d="M1808 903 c-33 -40 -50 -75 -40 -85 11 -11 85 79 76 93 -8 14 -19 11
-36 -8z"/>
<path d="M1595 851 c-10 -16 4 -31 28 -31 12 0 31 -7 41 -15 24 -18 36 -19 36
-2 0 7 -19 22 -42 33 -24 10 -46 20 -50 22 -3 2 -9 -2 -13 -7z"/>
<path d="M2490 850 c0 -6 -18 -33 -40 -61 -22 -28 -40 -56 -40 -62 1 -7 9 -1
20 13 10 14 27 34 37 45 10 10 26 32 35 47 15 24 15 28 3 28 -8 0 -15 -5 -15
-10z"/>
<path d="M2451 741 c-42 -53 -39 -65 4 -17 31 36 43 56 31 56 -2 0 -18 -18
-35 -39z"/>
<path d="M1326 724 c-32 -33 -33 -65 -2 -101 29 -34 41 -28 21 11 -20 37 -19
48 5 79 35 45 18 53 -24 11z"/>
<path d="M1533 734 c-17 -7 -35 -19 -39 -25 -10 -17 56 -3 74 15 20 20 2 25
-35 10z"/>
<path d="M307 699 c-27 -11 -68 -32 -91 -48 -46 -32 -116 -109 -116 -128 0
-23 18 -13 40 21 41 67 129 126 214 145 33 7 48 32 19 30 -10 -1 -40 -10 -66
-20z"/>
<path d="M2178 703 c-8 -10 -18 -25 -21 -33 -4 -8 -22 -42 -40 -75 -30 -55
-39 -63 -107 -97 -41 -21 -110 -49 -152 -64 -43 -14 -78 -30 -78 -35 0 -21 78
5 248 83 49 22 68 38 88 71 13 23 40 68 59 101 19 32 35 60 35 62 0 10 -18 2
-32 -13z"/>
<path d="M335 664 c-62 -21 -125 -57 -125 -71 0 -18 4 -17 46 12 20 14 42 25
49 25 22 0 95 36 88 43 -8 8 -7 8 -58 -9z"/>
<path d="M862 487 c-32 -46 -40 -67 -23 -67 12 0 63 88 59 101 -2 6 -18 -10
-36 -34z"/>
<path d="M1630 421 c0 -9 58 -21 105 -21 29 1 29 1 11 15 -21 16 -116 21 -116
6z"/>
<path d="M1538 294 c23 -20 42 -43 42 -50 0 -7 13 -23 29 -35 16 -12 27 -27
25 -33 -3 -7 12 -30 31 -51 20 -22 48 -59 62 -82 25 -44 38 -52 45 -32 3 9 9
9 25 0 12 -6 30 -11 40 -11 14 1 13 4 -7 15 -14 8 -33 14 -42 15 -10 0 -18 5
-18 10 0 6 -8 10 -17 11 -16 0 -15 1 1 8 19 7 19 8 -2 13 -12 4 -22 11 -22 17
0 6 8 8 18 5 9 -3 -1 5 -22 18 -36 21 -87 88 -67 88 15 0 57 -39 42 -40 -17 0
32 -40 50 -40 10 0 10 3 1 12 -7 7 -12 19 -12 28 0 8 -21 26 -46 39 -25 14
-58 37 -72 53 -15 15 -31 28 -37 28 -5 0 -21 12 -34 25 -13 14 -31 25 -40 25
-10 0 -1 -13 27 -36z"/>
</g>
</svg>
